<svg width="87px" height="25px" viewBox="-21 -149 87 25" version="1.1" xmlns="http://www.w3.org/2000/svg" xmlns:xlink="http://www.w3.org/1999/xlink">
    <!-- Generator: Sketch 42 (36781) - http://www.bohemiancoding.com/sketch -->
    <desc>Created with Sketch.</desc>
    <defs></defs>
    <g id="comingsooncomp_pt_BR" stroke="none" stroke-width="1" fill="none" fill-rule="evenodd" transform="translate(-21.000000, -149.000000)">
        <path d="M5.53744119,15.8517533 C6.36141846,15.8517533 7.00208041,15.7371812 7.46005483,15.508351 C8.17919081,15.148626 8.53891574,14.5013723 8.53891574,13.5662758 C8.53891574,12.6245874 8.15627639,11.9902034 7.39131158,11.6631237 C6.95970444,11.4801222 6.31872859,11.3884646 5.46869794,11.3884646 L1.98633455,11.3884646 L1.98633455,15.8517533 L5.53744119,15.8517533 Z M6.19442573,22.5022701 C7.39131158,22.5022701 8.24479509,22.1557288 8.75487626,21.4626462 C9.07505029,21.0244472 9.2354512,20.4949045 9.2354512,19.8733902 C9.2354512,18.8271745 8.767746,18.1143164 7.83264951,17.7351299 C7.33575197,17.532353 6.67845353,17.4309646 5.86106807,17.4309646 L1.98633455,17.4309646 L1.98633455,22.5022701 L6.19442573,22.5022701 Z M0.0734516885,9.76028549 L6.26316898,9.76028549 C7.95036054,9.76028549 9.15038535,10.2637748 9.86292951,11.2707535 C10.2816669,11.8659006 10.4910356,12.5527052 10.4910356,13.3308537 C10.4910356,14.2398968 10.2326991,14.9854 9.71602613,15.5673634 C9.44795886,15.8746677 9.06218055,16.1559186 8.5586912,16.4108023 C9.29760263,16.6920532 9.84974588,17.0090882 10.2163765,17.3622214 C10.8636303,17.9900136 11.1875711,18.8566807 11.1875711,19.9619089 C11.1875711,20.8904136 10.8965894,21.7307134 10.3143121,22.4828085 C9.4448199,23.6074983 8.06147977,24.1700001 6.1652334,24.1700001 L0.0734516885,24.1700001 L0.0734516885,9.76028549 L0.0734516885,9.76028549 Z" id="Fill-1" fill="#000000"></path>
        <path d="M20.2218149,16.3618345 C21.1374498,16.3618345 21.8616081,16.178833 22.3946037,15.8125163 C22.9275993,15.4461995 23.1940971,14.7857621 23.1940971,13.8308902 C23.1940971,12.8044499 22.8211885,12.1044616 22.0756853,11.7318669 C21.6767233,11.5356819 21.1437277,11.4374324 20.4766985,11.4374324 L15.7095584,11.4374324 L15.7095584,16.3618345 L20.2218149,16.3618345 Z M13.7574385,9.76028549 L20.4277307,9.76028549 C21.5263671,9.76028549 22.4322712,9.9203725 23.1448154,10.2408604 C24.4986493,10.855469 25.1754093,11.9902034 25.1754093,13.6447498 C25.1754093,14.5079641 24.9971163,15.2142303 24.6408442,15.7635485 C24.2845722,16.3128667 23.7857912,16.7542046 23.1448154,17.0875623 C23.7073172,17.3167064 24.1307631,17.6174189 24.4151529,17.9900136 C24.6998567,18.3629221 24.8583742,18.9677999 24.8910194,19.8049608 L24.9597627,21.7373053 C24.9792242,22.2866234 25.0250531,22.6953162 25.0969353,22.9633834 C25.2146463,23.4213579 25.424015,23.7154785 25.7247275,23.8463732 L25.7247275,24.1700001 L23.3312697,24.1700001 C23.2659793,24.0456972 23.2135586,23.8856102 23.1743216,23.6894251 C23.1350846,23.4932401 23.1024394,23.1137397 23.076386,22.5515518 L22.958675,20.1480493 C22.9128462,19.206361 22.562852,18.5754298 21.9090064,18.2549419 C21.5360979,18.0785323 20.9509955,17.9900136 20.1530716,17.9900136 L15.7095584,17.9900136 L15.7095584,24.1700001 L13.7574385,24.1700001 L13.7574385,9.76028549 L13.7574385,9.76028549 Z" id="Fill-2" fill="#000000"></path>
        <polyline id="Fill-3" fill="#000000" points="28.2164348 9.76028549 38.7219096 9.76028549 38.7219096 11.5259511 30.119273 11.5259511 30.119273 15.9007211 38.0746558 15.9007211 38.0746558 17.5684511 30.119273 17.5684511 30.119273 22.4533023 38.8691269 22.4533023 38.8691269 24.1700001 28.2164348 24.1700001 28.2164348 9.76028549"></polyline>
        <polyline id="Fill-4" fill="#000000" points="42.5671369 9.76028549 46.7067987 22.0314259 50.7971789 9.76028549 52.9847208 9.76028549 47.7269611 24.1700001 45.6571301 24.1700001 40.4091012 9.76028549 42.5671369 9.76028549"></polyline>
        <polyline id="Fill-5" fill="#000000" points="55.0153147 9.76028549 65.5207896 9.76028549 65.5207896 11.5259511 56.9181529 11.5259511 56.9181529 15.9007211 64.8735358 15.9007211 64.8735358 17.5684511 56.9181529 17.5684511 56.9181529 22.4533023 65.6680068 22.4533023 65.6680068 24.1700001 55.0153147 24.1700001 55.0153147 9.76028549"></polyline>
    </g>
</svg>