
<svg width="157px" height="48px" viewBox="0 0 157 48" version="1.1" xmlns="http://www.w3.org/2000/svg" xmlns:xlink="http://www.w3.org/1999/xlink">
    <!-- Generator: Sketch 42 (36781) - http://www.bohemiancoding.com/sketch -->
    <desc>Created with Sketch.</desc>
    <defs></defs>
    <g id="price" stroke="none" stroke-width="1" fill="none" fill-rule="evenodd">
        <path d="M0,14.8820188 L0.598929983,12.8576081 L3.39287221,12.8576081 C3.37371375,12.4680527 3.36413452,12.0689181 3.36413452,11.6602043 C3.36413452,11.3089658 3.37371375,10.9572712 3.39287221,10.6055766 L0,10.6055766 L0.598929983,8.58116591 L3.62094913,8.58116591 C3.94390604,6.84230749 4.54739756,5.33608754 5.43096754,4.06250604 C6.91346749,1.91493379 8.9615982,0.841147668 11.5749035,0.841147668 C13.7986534,0.841147668 15.5256519,1.53951919 16.7563549,2.93626222 C17.9870579,4.33346141 18.6690079,5.9204206 18.8022048,7.69759593 L16.4785572,7.69759593 C16.2221988,6.34829289 15.6994465,5.27906831 14.9107565,4.49037833 C14.1216104,3.70168835 13.0195427,3.30711529 11.6036412,3.30711529 C9.86432664,3.30711529 8.46256591,4.0342245 7.39835902,5.48798676 C6.80900826,6.28625597 6.38615366,7.31761979 6.12979521,8.58116591 L14.0837496,8.58116591 L13.4852758,10.6055766 L5.84469906,10.6055766 C5.81596137,11.090012 5.8018206,11.603185 5.8018206,12.1450958 C5.8018206,12.3923312 5.80638214,12.6295312 5.81596137,12.8576081 L14.0837496,12.8576081 L13.4852758,14.8820188 L6.02989752,14.8820188 C6.25797443,16.1268626 6.66167058,17.2056664 7.2414421,18.1179741 C8.20118976,19.6383348 9.63624972,20.3987433 11.546622,20.3987433 C13.3046388,20.3987433 14.6443627,19.5954564 15.5662495,17.9893387 C16.0511411,17.1436295 16.4119588,16.0319826 16.6496149,14.6539419 L18.9732625,14.6539419 C18.7638879,16.8585334 18.0750956,18.7068687 16.9064295,20.1989479 C15.5092303,21.9952817 13.6275958,22.8929924 11.2615258,22.8929924 C9.21795666,22.8929924 7.50281824,22.1567601 6.11519828,20.6838394 C4.80375601,19.2962194 3.9630645,17.3621272 3.59221143,14.8820188 L0,14.8820188" id="Fill-1" fill="#000000"></path>
        <path d="M31.5352829,14.0052911 L31.5352829,9.57923049 C35.7049851,9.17279743 38.6129658,8.49404052 40.259225,7.54250363 C41.9059403,6.59096673 43.1352749,4.34075987 43.9476849,0.790970746 L48.5023809,0.790970746 L48.5023809,46.527691 L42.3443042,46.527691 L42.3443042,14.0052911 L31.5352829,14.0052911" id="Fill-2" fill="#000000"></path>
        <path d="M66.2869065,36.199912 C67.708738,33.2704921 70.4830657,30.6088345 74.6098894,28.2140269 L80.7679661,24.6537462 C83.5263284,23.0499093 85.4613329,21.6814478 86.573436,20.5483617 C88.3264351,18.7734671 89.2031628,16.7422141 89.2031628,14.4541465 C89.2031628,11.7815412 88.4012444,9.65951357 86.7978636,8.08760746 C85.1940268,6.5161575 83.0560337,5.73020445 80.3829723,5.73020445 C76.4272062,5.73020445 73.6902833,7.22730133 72.1722033,10.2205828 C71.3597933,11.8244197 70.9109379,14.0481696 70.825181,16.8918326 L64.9558497,16.8918326 C65.0201673,12.8936442 65.7577681,9.63260049 67.1686519,7.10961364 C69.6706557,2.66211377 74.0862248,0.438363833 80.4153592,0.438363833 C85.6752691,0.438363833 89.5188213,1.86019533 91.9455596,4.70385833 C94.372298,7.54797747 95.5856672,10.7123166 95.5856672,14.1977881 C95.5856672,17.8753003 94.292015,21.0186563 91.7051666,23.6274001 C90.2080697,25.14548 87.5245167,26.9842361 83.6545076,29.1441245 L79.2603777,31.5813545 C77.1652632,32.736336 75.5185478,33.8374913 74.321144,34.8852767 C72.183151,36.745472 70.8361287,38.8086558 70.2800772,41.0752842 L95.3612395,41.0752842 L95.3612395,46.527691 L63.8332551,46.527691 C64.0471912,42.5719249 64.865075,39.1293319 66.2869065,36.199912" id="Fill-3" fill="#000000"></path>
        <polyline id="Fill-4" fill="#000000" points="108.417275 25.5874931 110.584005 25.5874931 103.941037 46.527691 101.774306 46.527691 108.417275 25.5874931"></polyline>
        <path d="M112.037768,25.5874931 L116.100274,25.5874931 L122.11603,43.2917357 L128.088909,25.5874931 L132.108536,25.5874931 L132.108536,46.527691 L129.414492,46.527691 L129.414492,34.168659 C129.414492,33.7412429 129.424071,33.0332921 129.442773,32.0448068 C129.461932,31.0563214 129.471511,29.9966761 129.471511,28.8658707 L123.498633,46.527691 L120.69055,46.527691 L114.674793,28.8658707 L114.674793,29.507223 C114.674793,30.0203961 114.686653,30.8022437 114.710373,31.8523098 C114.734093,32.902376 114.746409,33.6746444 114.746409,34.168659 L114.746409,46.527691 L112.037768,46.527691 L112.037768,25.5874931" id="Fill-5" fill="#000000"></path>
        <path d="M153.675946,28.5807746 C155.063566,30.4341276 155.757375,32.8052152 155.757375,35.6940374 C155.757375,38.8205158 154.963668,41.4196803 153.376709,43.491531 C151.514233,45.9241994 148.858049,47.1407617 145.408157,47.1407617 C142.186799,47.1407617 139.654233,46.0760987 137.810459,43.9476849 C136.166481,41.8949926 135.344491,39.3003896 135.344491,36.164332 C135.344491,33.332529 136.047425,30.9089837 137.454203,28.8946084 C139.25966,26.3095846 141.929984,25.0173008 145.465177,25.0173008 C149.161847,25.0173008 151.89877,26.2051254 153.675946,28.5807746 Z M151.174398,41.9164319 C152.291063,40.1251158 152.849395,38.0651251 152.849395,35.7369159 C152.849395,33.2755098 152.205306,31.2939776 150.917583,29.7923191 C149.629861,28.2911169 147.869563,27.5402877 145.636234,27.5402877 C143.469504,27.5402877 141.701907,28.2838184 140.333446,29.7713361 C138.964984,31.2583976 138.280754,33.451129 138.280754,36.3495305 C138.280754,38.6686166 138.867824,40.6236919 140.041507,42.2156688 C141.215191,43.8071895 143.117809,44.6031779 145.750273,44.6031779 C148.24954,44.6031779 150.057733,43.707748 151.174398,41.9164319 L151.174398,41.9164319 Z" id="Fill-6" fill="#000000"></path>
    </g>
</svg>