
<svg width="194px" height="172px" viewBox="0 0 194 172" version="1.1" xmlns="http://www.w3.org/2000/svg" xmlns:xlink="http://www.w3.org/1999/xlink">
    <!-- Generator: Sketch 42 (36781) - http://www.bohemiancoding.com/sketch -->
    <desc>Created with Sketch.</desc>
    <defs>
        <polygon id="path-1" points="0 0 144.889089 0 144.889089 81.0946395 0 81.0946395"></polygon>
        <polygon id="path-3" points="4.65370215e-16 80.9328106 4.65370215e-16 0.231899171 127.706586 0.231899171 82.9953086 80.9328106 0 80.9328106"></polygon>
    </defs>
    <g id="Group" stroke="none" stroke-width="1" fill="none" fill-rule="evenodd">
        <g id="Fill-1-Clipped" transform="translate(26.490916, 18.381452)">
            <mask id="mask-2" fill="white">
                <use xlink:href="#path-1"></use>
            </mask>
            <g id="path-1"></g>
            <polygon id="Fill-1" fill="#C4E1F7" fill-rule="nonzero" mask="url(#mask-2)" points="-2.77565305 -2.06874081 147.664742 -2.06874081 147.664742 83.1633801 -2.77565305 83.1633801"></polygon>
        </g>
        <g id="Fill-10-Clipped" transform="translate(26.490916, 18.381452)">
            <mask id="mask-4" fill="white">
                <use xlink:href="#path-3"></use>
            </mask>
            <g id="path-7"></g>
            <polygon id="Fill-10" fill-opacity="0.44" fill="#FFFFFF" fill-rule="nonzero" mask="url(#mask-4)" points="-3.63279128 -2.08709254 131.199655 -2.08709254 131.199655 83.2518021 -3.63279128 83.2518021"></polygon>
        </g>
        <g id="AR">
            <path d="M179.257538,59.6856547 C179.257538,60.9020743 178.506061,61.9400857 177.441018,62.3671841 C177.105827,62.4969355 176.749011,62.5726239 176.370569,62.5726239 C174.775708,62.5726239 173.4836,61.2805159 173.4836,59.6856547 L173.4836,48.1323717 C173.4836,46.5375105 174.775708,45.2454026 176.370569,45.2454026 C176.749011,45.2454026 177.105827,45.3156846 177.441018,45.4508423 C178.506061,45.8725344 179.257538,46.9159521 179.257538,48.1323717 L179.257538,59.6856547 Z M178.608781,7.61748981 L109.621031,7.61748981 L109.621031,17.0731248 L168.580077,17.0731248 L168.580077,88.0363407 L171.634642,92.4046386 L173.045689,94.421192 C174.116138,96.0971478 175.105493,97.6595712 175.846157,98.8165214 C176.138098,99.2760577 176.419226,99.735594 176.700354,100.200537 L178.608781,100.200537 C182.063413,100.200537 184.858475,97.4000684 184.858475,93.9508431 L184.858475,13.8671834 C184.858475,10.417958 182.063413,7.61748981 178.608781,7.61748981 L178.608781,7.61748981 Z" id="Fill-331" fill="#1485E0"></path>
            <path d="M104.209315,90.7449016 L31.5436523,90.7449016 L31.5436523,80.7432294 L16.3129977,80.7432294 L16.3129977,93.9508431 C16.3129977,97.4000684 19.1113034,100.200537 22.5626912,100.200537 L110.123277,100.200537 L105.245704,92.4046386 L104.209315,90.7449016" id="Fill-333" fill="#1485E0"></path>
            <path d="M177.441018,45.4508423 C177.105827,45.3156846 176.749011,45.2454026 176.370569,45.2454026 C174.775708,45.2454026 173.4836,46.5375105 173.4836,48.1323717 L173.4836,59.6856547 C173.4836,61.2805159 174.775708,62.5726239 176.370569,62.5726239 C176.749011,62.5726239 177.105827,62.4969355 177.441018,62.3671841 C178.506061,61.9400857 179.257538,60.9020743 179.257538,59.6856547 L179.257538,48.1323717 C179.257538,46.9159521 178.506061,45.8725344 177.441018,45.4508423" id="Fill-337" fill="#FFFFFF"></path>
            <path d="M6.30213475,74.4448791 L94.0103125,74.4448791 L89.2857388,66.892265 C87.6730367,64.3188618 88.3920758,60.9291058 90.8941158,59.3180257 C93.3702054,57.7285707 96.6648103,58.4800477 98.2953532,60.9885752 C98.2953532,60.9885752 100.387054,63.7025425 103.318355,67.4977716 L103.318355,6.30375665 L6.30213475,6.30375665 L6.30213475,74.4448791" id="Fill-338" fill="#FFFFFF"></path>
            <path d="M0,80.7432294 L97.9525932,80.7432294 L95.9814528,77.5913511 L94.0103125,74.4448791 L6.30213475,74.4448791 L6.30213475,6.30375665 L103.318355,6.30375665 L103.318355,67.4977716 C104.291491,68.7574417 105.357615,70.1360506 106.470234,71.5741289 C107.493107,72.8986746 108.554366,74.2718772 109.621031,75.6558924 L109.621031,0 L0,0 L0,80.7432294" id="Fill-339" fill="#1485E0"></path>
            <path d="M176.700354,100.200537 C176.419226,99.735594 176.138098,99.2760577 175.846157,98.8165214 C175.105493,97.6595712 174.116138,96.0971478 173.045689,94.421192 L171.634642,92.4046386 L164.233405,81.819085 L161.768128,77.8995107 C159.838075,74.8287271 155.745499,73.8934355 152.674715,75.823488 C150.517598,77.1804716 149.32821,79.9593146 149.82559,82.3867475 L146.587211,78.3968912 C144.18681,75.4450463 139.640104,74.7530387 136.477413,76.8614994 C133.84454,78.9969915 133.217408,82.711126 134.823082,85.5764699 L132.93628,83.2517569 C130.595348,80.3647878 126.362208,79.6998117 123.372519,81.9109922 C120.290923,84.1924548 119.771917,87.4686782 121.458685,90.7449016 C121.518155,90.8584341 121.572218,90.9773729 121.637094,91.0909054 C121.658719,91.1341559 121.555999,91.0098108 121.345153,90.7449016 C120.069264,89.1554467 114.802437,82.3543096 109.621031,75.6558924 C108.554366,74.2718772 107.493107,72.8986746 106.470234,71.5741289 C105.357615,70.1360506 104.291491,68.7574417 103.318355,67.4977716 C100.387054,63.7025425 98.2953532,60.9885752 98.2953532,60.9885752 C96.6648103,58.4800477 93.3702054,57.7285707 90.8941158,59.3180257 C88.3920758,60.9291058 87.6730367,64.3188618 89.2857388,66.892265 L94.0103125,74.4448791 L95.9814528,77.5913511 L104.209315,90.7449016 L105.245704,92.4046386 L121.577624,118.5063 C121.588437,118.522519 121.615468,118.571176 121.631687,118.587395 C121.756032,118.782022 121.896596,118.965836 122.037161,119.144244 C122.896764,120.647198 123.756367,122.128527 124.594345,123.561199 C122.864326,122.771878 121.864159,121.820368 121.864159,121.820368 L107.236848,106.817859 C95.3197206,96.9621573 89.6387708,104.914838 89.6387708,104.914838 L124.194278,148.138281 L157.086264,165.443877 C157.334954,165.39522 158.810876,167.406368 161.151808,170.882624 L192.978751,149.684486 C190.410754,146.13254 188.799674,143.905141 188.799674,143.905141 C188.45367,141.028984 187.334564,117.954856 176.700354,100.200537" id="Fill-340" fill="#8B9AA3"></path>
            <path d="M38.143134,45.5481559 L41.0392939,37.0926881 L43.7938085,45.5481559 L38.143134,45.5481559 Z M37.335972,22.9443767 L25.4642574,57.7988528 L33.9640569,57.7988528 L35.3886194,53.5711189 L46.358021,53.5711189 L47.735008,57.7988528 L56.1877726,57.7988528 L44.9334585,22.9443767 L37.335972,22.9443767 L37.335972,22.9443767 Z" id="Fill-341" fill="#1485E0"></path>
            <path d="M72.4515729,37.876603 C72.1185442,38.4658907 71.6595485,38.9794901 71.0740452,39.4228074 C70.4880013,39.8661248 69.8078876,40.2229412 69.0320822,40.4878504 C68.2562768,40.7581658 67.441546,40.9095425 66.5868085,40.9419803 L66.5868085,31.11331 C67.441546,31.1457479 68.2562768,31.2971246 69.0320822,31.5620337 C69.8078876,31.8323492 70.4880013,32.1891656 71.0740452,32.6324829 C71.6595485,33.0758003 72.1185442,33.5839934 72.4515729,34.1516559 C72.7835202,34.7193183 72.9500346,35.3410439 72.9500346,36.0006136 C72.9500346,36.6655897 72.7835202,37.2927216 72.4515729,37.876603 Z M79.7879346,41.2231084 C80.5788776,39.6282472 80.9751601,37.8982282 80.9751601,36.0330515 C80.9751601,34.259782 80.6026654,32.6054514 79.8592979,31.0538406 C79.1148491,29.5076362 78.0854878,28.1452462 76.7722952,26.9774834 C75.4585621,25.8043143 73.9307391,24.8744291 72.1899075,24.1770152 C70.4485353,23.4796013 68.581196,23.1173786 66.5868085,23.0849407 L58.561683,23.0849407 L58.561683,57.7988528 L66.5868085,57.7988528 L66.5868085,49.0136001 C67.0295853,48.9811623 67.4572243,48.9487244 67.8691851,48.9216929 C68.2800646,48.889255 68.6914847,48.8405982 69.1039861,48.7757225 L74.7065445,57.7988528 L84.1567731,57.7988528 L76.463595,45.375154 C77.8881575,44.2073912 78.9959103,42.823376 79.7879346,41.2231084 L79.7879346,41.2231084 Z" id="Fill-342" fill="#1485E0"></path>
        </g>
    </g>
</svg>