
<svg width="97px" height="59px" viewBox="-19 -82 97 59" version="1.1" xmlns="http://www.w3.org/2000/svg" xmlns:xlink="http://www.w3.org/1999/xlink">
    <!-- Generator: Sketch 42 (36781) - http://www.bohemiancoding.com/sketch -->
    <desc>Created with Sketch.</desc>
    <defs></defs>
    <g id="uponrequest_pt_BR" stroke="none" stroke-width="1" fill="none" fill-rule="evenodd" transform="translate(-19.000000, -82.000000)">
        <path d="M46.3052517,22.1542701 L43.5574077,14.1575671 L40.6372567,22.1542701 L46.3052517,22.1542701 Z M42.275948,11.4716275 L45.0482383,11.4716275 L51.6156208,29.5721477 L48.9296812,29.5721477 L47.0938423,24.1505872 L39.9346225,24.1505872 L37.9757634,29.5721477 L35.4621309,29.5721477 L42.275948,11.4716275 L42.275948,11.4716275 Z" id="Fill-1" fill="#000000"></path>
        <path d="M0.184924497,39.8608893 L8.32948826,39.8608893 C9.93939597,39.8608893 11.2374161,40.3147232 12.2231544,41.2223909 C13.2088926,42.1300587 13.7017617,43.4052097 13.7017617,45.0482383 C13.7017617,46.4609983 13.2621225,47.6911997 12.3832383,48.738448 C11.504354,49.7860906 10.153104,50.3097148 8.32948826,50.3097148 L2.63704698,50.3097148 L2.63704698,57.9614094 L0.184924497,57.9614094 L0.184924497,39.8608893 Z M9.74658557,42.3496812 C9.20442953,42.0949664 8.46078859,41.9676091 7.51645134,41.9676091 L2.63704698,41.9676091 L2.63704698,48.2396644 L7.51645134,48.2396644 C8.61692953,48.2396644 9.51040268,48.005453 10.1960822,47.5370302 C10.882156,47.0690017 11.225193,46.2433473 11.225193,45.0604614 C11.225193,43.7297148 10.7323238,42.8263842 9.74658557,42.3496812 L9.74658557,42.3496812 Z" id="Fill-2" fill="#000000"></path>
        <polyline id="Fill-3" fill="#000000" points="17.0162081 39.8608893 30.2128775 39.8608893 30.2128775 42.0788003 19.4068205 42.0788003 19.4068205 47.574094 29.3998406 47.574094 29.3998406 49.6689849 19.4068205 49.6689849 19.4068205 55.8050084 30.397802 55.8050084 30.397802 57.9614094 17.0162081 57.9614094 17.0162081 39.8608893"></polyline>
        <path d="M40.5631292,55.8665185 C41.3927265,55.8665185 42.0744631,55.7805621 42.6087332,55.6078607 C43.5613507,55.287693 44.3416611,54.6714094 44.9496644,53.7597987 C45.4342534,53.0287752 45.783599,52.0923238 45.9969128,50.9504446 C46.1203272,50.2687081 46.1818372,49.6358641 46.1818372,49.0527013 C46.1818372,46.810344 45.7362836,45.0687416 44.8447819,43.8282886 C43.9536745,42.5878356 42.5180453,41.9676091 40.5386829,41.9676091 L36.1888171,41.9676091 L36.1888171,55.8665185 L40.5631292,55.8665185 Z M33.7244715,39.8608893 L41.0559983,39.8608893 C43.5451846,39.8608893 45.4752601,40.7437164 46.8474077,42.5097651 C48.0713003,44.1035067 48.6832466,46.1447735 48.6832466,48.6339597 C48.6832466,50.5561493 48.3216779,52.2934144 47.5989346,53.845755 C46.325755,56.589656 44.1366275,57.9614094 41.031552,57.9614094 L33.7244715,57.9614094 L33.7244715,39.8608893 L33.7244715,39.8608893 Z" id="Fill-4" fill="#000000"></path>
        <polygon id="Fill-5" fill="#000000" points="52.3919883 57.9614094 54.868557 57.9614094 54.868557 39.8608893 52.3919883 39.8608893"></polygon>
        <path d="M65.7980285,55.8665185 C66.6276258,55.8665185 67.3093624,55.7805621 67.8436326,55.6078607 C68.79625,55.287693 69.5765604,54.6714094 70.1845638,53.7597987 C70.6691527,53.0287752 71.0184983,52.0923238 71.2318121,50.9504446 C71.3552265,50.2687081 71.4167366,49.6358641 71.4167366,49.0527013 C71.4167366,46.810344 70.9711829,45.0687416 70.0796812,43.8282886 C69.1885738,42.5878356 67.7529446,41.9676091 65.7735822,41.9676091 L61.4237164,41.9676091 L61.4237164,55.8665185 L65.7980285,55.8665185 Z M58.9593708,39.8608893 L66.2908977,39.8608893 C68.7800839,39.8608893 70.7101594,40.7437164 72.082307,42.5097651 C73.3061997,44.1035067 73.918146,46.1447735 73.918146,48.6339597 C73.918146,50.5561493 73.5565772,52.2934144 72.8338339,53.845755 C71.5606544,56.589656 69.3715268,57.9614094 66.2664513,57.9614094 L58.9593708,57.9614094 L58.9593708,39.8608893 L58.9593708,39.8608893 Z" id="Fill-6" fill="#000000"></path>
        <path d="M91.9816023,42.448255 C93.1810487,44.0502768 93.7807718,46.0998238 93.7807718,48.596896 C93.7807718,51.299396 93.094698,53.5460906 91.7229446,55.3369799 C90.1130369,57.4397567 87.8170554,58.4913423 84.835,58.4913423 C82.0504866,58.4913423 79.8613591,57.571057 78.2676174,55.7312752 C76.8465772,53.9569463 76.136057,51.7141946 76.136057,49.0034144 C76.136057,46.5556292 76.7436661,44.4607383 77.9596728,42.7195302 C79.5202936,40.4850587 81.8284983,39.3680201 84.8842869,39.3680201 C88.079656,39.3680201 90.4454279,40.3947651 91.9816023,42.448255 Z M89.8192869,53.9754782 C90.7845218,52.4270805 91.2671393,50.646443 91.2671393,48.6339597 C91.2671393,46.5063423 90.7103943,44.7935235 89.5972987,43.4955034 C88.484203,42.1978775 86.9626174,41.5488674 85.0321477,41.5488674 C83.159245,41.5488674 81.6313507,42.1915688 80.4484648,43.4773658 C79.2655789,44.7627685 78.6741359,46.658146 78.6741359,49.1634983 C78.6741359,51.1680956 79.181594,52.8580453 80.1961158,54.2341359 C81.2106376,55.6098322 82.8552433,56.2978775 85.1307215,56.2978775 C87.2910654,56.2978775 88.854052,55.5238758 89.8192869,53.9754782 L89.8192869,53.9754782 Z" id="Fill-7" fill="#000000"></path>
    </g>
</svg>