
<svg width="86px" height="51px" viewBox="0 0 86 51" version="1.1" xmlns="http://www.w3.org/2000/svg" xmlns:xlink="http://www.w3.org/1999/xlink">
    <!-- Generator: Sketch 42 (36781) - http://www.bohemiancoding.com/sketch -->
    <desc>Created with Sketch.</desc>
    <defs></defs>
    <g id="comingsoon_pt_BR" stroke="none" stroke-width="1" fill="none" fill-rule="evenodd">
        <polyline id="Fill-1" fill="#000000" points="25.3441522 0.83325595 38.9227821 0.83325595 38.9227821 3.11536157 27.8035521 3.11536157 27.8035521 8.76970931 38.0858071 8.76970931 38.0858071 10.9252341 27.8035521 10.9252341 27.8035521 17.2388568 39.1126532 17.2388568 39.1126532 19.4576721 25.3441522 19.4576721 25.3441522 0.83325595"></polyline>
        <path d="M42.3583146,0.83325595 L45.9719528,0.83325595 L51.3220197,16.5795819 L56.6343559,0.83325595 L60.2094519,0.83325595 L60.2094519,19.4576721 L57.8133424,19.4576721 L57.8133424,8.46542856 C57.8133424,8.08528048 57.8218623,7.45562218 57.838902,6.57645367 C57.855536,5.69728516 57.8640559,4.75482625 57.8640559,3.74907695 L52.5517197,19.4576721 L50.0541833,19.4576721 L44.7041163,3.74907695 L44.7041163,4.31950192 C44.7041163,4.77592305 44.7146647,5.47130599 44.7357615,6.40524503 C44.7568583,7.33918408 44.7674067,8.02604716 44.7674067,8.46542856 L44.7674067,19.4576721 L42.3583146,19.4576721 L42.3583146,0.83325595" id="Fill-2" fill="#000000"></path>
        <path d="M7.35345145,39.9459092 C8.41843407,39.9459092 9.24688912,39.7978259 9.8384109,39.502065 C10.7682929,39.037124 11.2332339,38.2005548 11.2332339,36.9919517 C11.2332339,35.7748287 10.7386762,34.9548935 9.74956092,34.5321461 C9.19171288,34.2956185 8.36366353,34.1771519 7.26460147,34.1771519 L2.76408633,34.1771519 L2.76408633,39.9459092 L7.35345145,39.9459092 Z M8.2030033,48.5416375 C9.74956092,48.5416375 10.8526801,48.0937363 11.511955,47.1979337 C11.9261825,46.6315658 12.1330935,45.947137 12.1330935,45.1438358 C12.1330935,43.7916122 11.5289947,42.8702501 10.3203916,42.3801552 C9.67775066,42.118068 8.82819881,41.9870245 7.77173605,41.9870245 L2.76408633,41.9870245 L2.76408633,48.5416375 L8.2030033,48.5416375 Z M0.291703812,32.0727462 L8.29185328,32.0727462 C10.472532,32.0727462 12.0231467,32.7235013 12.9445088,34.0250115 C13.4857228,34.7942333 13.7559241,35.6819216 13.7559241,36.6876709 C13.7559241,37.8626003 13.4220267,38.826156 12.7546376,39.5783381 C12.4077575,39.9755259 11.9091428,40.3390399 11.2583877,40.6684746 C12.2134236,41.0319886 12.9278748,41.4417534 13.4009299,41.8981745 C14.2379048,42.7095898 14.6561894,43.8297487 14.6561894,45.2582454 C14.6561894,46.4583287 14.2800984,47.5444081 13.5279164,48.5164836 C12.4037005,49.9701342 10.6161525,50.6971623 8.16486678,50.6971623 L0.291703812,50.6971623 L0.291703812,32.0727462 L0.291703812,32.0727462 Z" id="Fill-3" fill="#000000"></path>
        <path d="M26.3328618,40.6051842 C27.516311,40.6051842 28.4522786,40.3686566 29.1411702,39.8951957 C29.8300619,39.4217349 30.1745077,38.568126 30.1745077,37.3339632 C30.1745077,36.0072992 29.6929327,35.1025711 28.729377,34.6209961 C28.2137225,34.3674288 27.5248309,34.2404423 26.6627021,34.2404423 L20.5008141,34.2404423 L20.5008141,40.6051842 L26.3328618,40.6051842 Z M17.9781238,32.0727462 L26.5994117,32.0727462 C28.0193885,32.0727462 29.1898552,32.2796571 30.1112173,32.6938847 C31.8606287,33.4882603 32.7357402,34.9548935 32.7357402,37.0933786 C32.7357402,38.2090747 32.5052982,39.1219169 32.0444143,39.8319053 C31.5839361,40.5418938 30.9392666,41.1123187 30.1112173,41.5431803 C30.8378397,41.8393469 31.3851393,42.2280148 31.7531162,42.7095898 C32.1206873,43.1915705 32.3255697,43.9733692 32.3677633,45.0553915 L32.4566133,47.5529279 C32.4821729,48.2629164 32.5410005,48.7911477 32.6343132,49.1376221 C32.7864536,49.7295496 33.0566549,50.1096976 33.4457286,50.2788777 L33.4457286,50.6971623 L30.3522076,50.6971623 C30.2674147,50.5365021 30.2000672,50.3295912 30.1493538,50.0760239 C30.0986403,49.8224566 30.056041,49.3319561 30.0223673,48.6053336 L29.8702269,45.49883 C29.8109936,44.281707 29.3590353,43.4662346 28.5135405,43.0520071 C28.0319655,42.8239994 27.2753207,42.7095898 26.2444175,42.7095898 L20.5008141,42.7095898 L20.5008141,50.6971623 L17.9781238,50.6971623 L17.9781238,32.0727462 L17.9781238,32.0727462 Z" id="Fill-4" fill="#000000"></path>
        <polyline id="Fill-5" fill="#000000" points="36.6658303 32.0727462 50.2444602 32.0727462 50.2444602 34.3548519 39.1256359 34.3548519 39.1256359 40.0091996 49.4074853 40.0091996 49.4074853 42.1647244 39.1256359 42.1647244 39.1256359 48.4783471 50.4347371 48.4783471 50.4347371 50.6971623 36.6658303 50.6971623 36.6658303 32.0727462"></polyline>
        <polyline id="Fill-6" fill="#000000" points="55.2143791 32.0727462 60.5644461 47.933076 65.8516284 32.0727462 68.6785994 32.0727462 61.882996 50.6971623 59.2081654 50.6971623 52.4251389 32.0727462 55.2143791 32.0727462"></polyline>
        <polyline id="Fill-7" fill="#000000" points="71.3031223 32.0727462 84.8817522 32.0727462 84.8817522 34.3548519 73.7629279 34.3548519 73.7629279 40.0091996 84.0447773 40.0091996 84.0447773 42.1647244 73.7629279 42.1647244 73.7629279 48.4783471 85.0720291 48.4783471 85.0720291 50.6971623 71.3031223 50.6971623 71.3031223 32.0727462"></polyline>
    </g>
</svg>