
<svg width="86px" height="48px" viewBox="0 0 86 48" version="1.1" xmlns="http://www.w3.org/2000/svg" xmlns:xlink="http://www.w3.org/1999/xlink">
    <!-- Generator: Sketch 42 (36781) - http://www.bohemiancoding.com/sketch -->
    <desc>Created with Sketch.</desc>
    <defs></defs>
    <g id="comingsoon" stroke="none" stroke-width="1" fill="none" fill-rule="evenodd">
        <path d="M10.9720301,10.1099265 C11.9718958,11.0645987 12.5273075,12.1489294 12.6376418,13.3632302 L10.747933,13.3632302 C10.5338097,12.4412842 10.1068097,11.710709 9.46724469,11.1718163 C8.82767972,10.6329235 7.93004467,10.3633214 6.77402786,10.3633214 C5.36523951,10.3633214 4.22730008,10.858579 3.36020955,11.8487827 C2.4934307,12.8389864 2.05988544,14.3565506 2.05988544,16.4020988 C2.05988544,18.0773726 2.45135406,19.4359806 3.23366794,20.4782347 C4.01598182,21.5204887 5.18321907,22.0416157 6.735068,22.0416157 C8.1638038,22.0416157 9.25125126,21.4927493 9.99803376,20.3953281 C10.3941776,19.8174755 10.6896491,19.0579142 10.8844484,18.1163324 L12.7738455,18.1163324 C12.6052272,19.6226763 12.0466988,20.8855989 11.0985717,21.9051004 C9.96250237,23.1324917 8.42997752,23.7458756 6.50130888,23.7458756 C4.83912563,23.7458756 3.44311612,23.242826 2.31328033,22.236415 C0.826260599,20.9052347 0.0829065708,18.8500244 0.0829065708,16.0707842 C0.0829065708,13.9607185 0.641123369,12.2302776 1.75818032,10.8794615 C2.96593582,9.41207754 4.63123585,8.67838556 6.75470377,8.67838556 C8.56618117,8.67838556 9.97216441,9.15556586 10.9720301,10.1099265" id="Fill-1" fill="#000000"></path>
        <path d="M26.9162727,11.1132206 C27.8643998,12.3795718 28.3384633,13.9996784 28.3384633,15.9735404 C28.3384633,18.1097872 27.7961421,19.8857332 26.7118114,21.3013785 C25.4392267,22.9635617 23.6243209,23.7948092 21.2670938,23.7948092 C19.0660179,23.7948092 17.335577,23.0673508 16.0757711,21.6130573 C14.9524806,20.2105026 14.3908353,18.4376733 14.3908353,16.2948813 C14.3908353,14.3599791 14.8714441,12.7040294 15.8323499,11.3276557 C17.0659748,9.5613717 18.8905427,8.67838556 21.3060537,8.67838556 C23.8322106,8.67838556 25.7022837,9.48999725 26.9162727,11.1132206 Z M25.207026,20.2251515 C25.9700158,19.0011887 26.3515107,17.593647 26.3515107,16.0028382 C26.3515107,14.3210192 25.9114202,12.9670864 25.0318625,11.9410396 C24.1519931,10.9153046 22.9489128,10.4022812 21.4229332,10.4022812 C19.9424588,10.4022812 18.7347033,10.9103177 17.7996667,11.9267024 C16.8646302,12.9427754 16.397112,14.4410156 16.397112,16.4214229 C16.397112,18.0059981 16.7982426,19.3418536 17.6001923,20.4296128 C18.4021419,21.5170602 19.702466,22.0609398 21.5008529,22.0609398 C23.208853,22.0609398 24.4440362,21.4491143 25.207026,20.2251515 L25.207026,20.2251515 Z" id="Fill-2" fill="#000000"></path>
        <path d="M30.5981349,9.0679841 L33.3739466,9.0679841 L37.4843671,21.1648632 L41.5651781,9.0679841 L44.3120037,9.0679841 L44.3120037,23.3759128 L42.4712285,23.3759128 L42.4712285,14.9312864 C42.4712285,14.6392433 42.4774621,14.1555178 42.4905526,13.4801097 C42.5036431,12.8047017 42.5101884,12.0806717 42.5101884,11.3080199 L38.4290657,23.3759128 L36.5103707,23.3759128 L32.3999502,11.3080199 L32.3999502,11.7462404 C32.3999502,12.096879 32.4080539,12.6310966 32.4242612,13.3485813 C32.4404685,14.0660659 32.4485721,14.5937382 32.4485721,14.9312864 L32.4485721,23.3759128 L30.5981349,23.3759128 L30.5981349,9.0679841" id="Fill-3" fill="#000000"></path>
        <polygon id="Fill-4" fill="#000000" points="47.7015111 23.3759128 49.6591659 23.3759128 49.6591659 9.0679841 47.7015111 9.0679841"></polygon>
        <polyline id="Fill-5" fill="#000000" points="52.805252 9.0679841 55.0942214 9.0679841 62.3211186 20.658385 62.3211186 9.0679841 64.1618938 9.0679841 64.1618938 23.3759128 61.9901157 23.3759128 54.6556893 11.7951739 54.6556893 23.3759128 52.805252 23.3759128 52.805252 9.0679841"></polyline>
        <path d="M76.8824422,9.47690674 C78.3043211,10.2236892 79.1745284,11.532117 79.4927525,13.40219 L77.5740576,13.40219 C77.3402985,12.3568192 76.8565729,11.5953878 76.1225692,11.1182075 C75.3888773,10.6410272 74.4635028,10.4022812 73.3467575,10.4022812 C72.0221225,10.4022812 70.9069356,10.8990973 70.0011969,11.8924177 C69.0954582,12.8860499 68.6422771,14.3665243 68.6422771,16.3338412 C68.6422771,18.0352959 69.0156684,19.4197733 69.7624509,20.4878967 C70.5092334,21.5560201 71.7266509,22.0902376 73.4150152,22.0902376 C74.7072356,22.0902376 75.7769174,21.715288 76.6243722,20.9653887 C77.4718269,20.2151777 77.9050605,19.0027471 77.9246963,17.3274733 L73.444313,17.3274733 L73.444313,15.7201455 L79.7265116,15.7201455 L79.7265116,23.3759128 L78.4797963,23.3759128 L78.012278,21.5351376 C77.3565058,22.2557391 76.7752247,22.7556719 76.2687466,23.0349362 C75.4181751,23.5155449 74.3369612,23.7558493 73.0254166,23.7558493 C71.3305071,23.7558493 69.8727852,23.2069829 68.6522509,22.1095617 C67.3210705,20.733188 66.6553245,18.8434792 66.6553245,16.4410587 C66.6553245,14.0448718 67.3048632,12.1392674 68.6033173,10.7236221 C69.8372538,9.37311769 71.4346078,8.69770964 73.3953794,8.69770964 C74.7396502,8.69770964 75.9019006,8.9576498 76.8824422,9.47690674" id="Fill-6" fill="#000000"></path>
        <path d="M13.6213002,42.7582847 C13.6668054,43.5702081 13.8584878,44.2290971 14.196036,44.7355753 C14.8387178,45.6837023 15.971982,46.1577658 17.5952054,46.1577658 C18.3223522,46.1577658 18.9846697,46.0536651 19.582158,45.846087 C20.7378631,45.4433979 21.3160274,44.7227964 21.3160274,43.6836592 C21.3160274,42.9044621 21.0722945,42.3493621 20.5854522,42.0180475 C20.0920646,41.6935898 19.3191011,41.4112088 18.267185,41.1709044 L16.329166,40.7323723 C15.0628149,40.4468744 14.1667382,40.1317671 13.640936,39.7876737 C12.7317688,39.1904971 12.2773411,38.2975372 12.2773411,37.1091058 C12.2773411,35.8234306 12.7221068,34.7683977 13.6116382,33.9436955 C14.5011696,33.1189933 15.7609755,32.7066422 17.3907441,32.7066422 C18.8905427,32.7066422 20.1649974,33.068813 21.2137967,33.7928429 C22.2622843,34.5168729 22.7865281,35.6741364 22.7865281,37.2649452 L20.9653887,37.2649452 C20.8678332,36.4988386 20.6599434,35.911324 20.342031,35.5020897 C19.7510879,34.7553072 18.7477938,34.3819159 17.3321485,34.3819159 C16.1895339,34.3819159 15.3679484,34.6222203 14.8680156,35.1028291 C14.3680827,35.5834379 14.1181163,36.1416547 14.1181163,36.7781028 C14.1181163,37.4793802 14.4101594,37.9924036 14.9945572,38.3168613 C15.3779222,38.5247511 16.244701,38.7843795 17.5952054,39.0960584 L19.6017938,39.5539146 C20.5692449,39.7748949 21.3160274,40.0766 21.8418296,40.4596533 C22.7509968,41.1285161 23.2054245,42.0993956 23.2054245,43.3719803 C23.2054245,44.9565555 22.6291303,46.0895081 21.476542,46.7711497 C20.3239536,47.453103 18.9846697,47.7940797 17.4590018,47.7940797 C15.6796273,47.7940797 14.2870462,47.3393403 13.2803236,46.4304848 C12.2739126,45.5278629 11.780525,44.3039001 11.7998491,42.7582847 L13.6213002,42.7582847" id="Fill-7" fill="#000000"></path>
        <path d="M37.4454072,35.1124911 C38.3932226,36.3788423 38.8672861,37.9989489 38.8672861,39.9728109 C38.8672861,42.1090577 38.3252766,43.8850037 37.2406342,45.300649 C35.9680495,46.9628322 34.1531437,47.7940797 31.7962283,47.7940797 C29.5948407,47.7940797 27.8643998,47.0666213 26.6045939,45.6123278 C25.4813034,44.2097731 24.9196581,42.4369438 24.9196581,40.2941518 C24.9196581,38.3592496 25.4002669,36.7032999 26.3611727,35.3269262 C27.5947976,33.5606422 29.4196772,32.6776561 31.8351882,32.6776561 C34.3610335,32.6776561 36.2311065,33.4892678 37.4454072,35.1124911 Z M35.7358488,44.224422 C36.4988386,43.0004592 36.8803335,41.5929175 36.8803335,40.0021087 C36.8803335,38.3202897 36.4405547,36.9663569 35.5606853,35.9403101 C34.6808159,34.9145751 33.4777356,34.4015517 31.9520677,34.4015517 C30.4715932,34.4015517 29.2638377,34.9095882 28.3288012,35.9259729 C27.3937647,36.9420459 26.9262465,38.4402861 26.9262465,40.4206934 C26.9262465,42.0052686 27.3270655,43.3411241 28.1290151,44.4288833 C28.9309648,45.5163307 30.2312889,46.0602103 32.0299874,46.0602103 C33.7376758,46.0602103 34.972859,45.4483848 35.7358488,44.224422 L35.7358488,44.224422 Z" id="Fill-8" fill="#000000"></path>
        <path d="M52.9610915,35.1124911 C53.9092185,36.3788423 54.3829703,37.9989489 54.3829703,39.9728109 C54.3829703,42.1090577 53.8409608,43.8850037 52.7566301,45.300649 C51.4837338,46.9628322 49.6688279,47.7940797 47.3119125,47.7940797 C45.1105249,47.7940797 43.380084,47.0666213 42.1205898,45.6123278 C40.9969876,44.2097731 40.4353423,42.4369438 40.4353423,40.2941518 C40.4353423,38.3592496 40.9159511,36.7032999 41.876857,35.3269262 C43.1107935,33.5606422 44.9353614,32.6776561 47.3508724,32.6776561 C49.8767177,32.6776561 51.7467907,33.4892678 52.9610915,35.1124911 Z M51.2518447,44.224422 C52.0145228,43.0004592 52.3960177,41.5929175 52.3960177,40.0021087 C52.3960177,38.3202897 51.9562389,36.9663569 51.0763695,35.9403101 C50.1965002,34.9145751 48.9937315,34.4015517 47.4677519,34.4015517 C45.9872775,34.4015517 44.779522,34.9095882 43.8444855,35.9259729 C42.9094489,36.9420459 42.4419307,38.4402861 42.4419307,40.4206934 C42.4419307,42.0052686 42.8427497,43.3411241 43.6446993,44.4288833 C44.446649,45.5163307 45.7469731,46.0602103 47.5456717,46.0602103 C49.25336,46.0602103 50.4888549,45.4483848 51.2518447,44.224422 L51.2518447,44.224422 Z" id="Fill-9" fill="#000000"></path>
        <polyline id="Fill-10" fill="#000000" points="56.6915755 33.0672546 58.9802332 33.0672546 66.2074421 44.6576555 66.2074421 33.0672546 68.0482173 33.0672546 68.0482173 47.3751833 65.8761275 47.3751833 58.5420127 35.7944444 58.5420127 47.3751833 56.6915755 47.3751833 56.6915755 33.0672546"></polyline>
    </g>
</svg>