<?xml version="1.0" standalone="no"?>
<!DOCTYPE svg PUBLIC "-//W3C//DTD SVG 20010904//EN"
 "http://www.w3.org/TR/2001/REC-SVG-20010904/DTD/svg10.dtd">
<svg version="1.0" xmlns="http://www.w3.org/2000/svg"
 width="561.000000pt" height="561.000000pt" viewBox="0 0 561.000000 561.000000"
 preserveAspectRatio="xMidYMid meet">
<metadata>
Created by potrace 1.11, written by Peter Selinger 2001-2013
</metadata>
<g transform="translate(0.000000,561.000000) scale(0.100000,-0.100000)"
fill="#000000" stroke="none">
<path d="M1835 3908 c-9 -25 -385 -1538 -385 -1548 0 -7 42 -10 122 -8 l121 3
88 365 c49 201 117 496 151 655 l63 290 7 -80 c4 -44 15 -170 23 -280 9 -110
34 -362 55 -560 22 -198 40 -364 40 -368 0 -4 48 -6 106 -5 l106 3 242 480
c134 264 276 553 316 643 40 89 74 161 76 160 1 -2 -17 -120 -41 -263 -42
-251 -145 -976 -145 -1023 0 -22 1 -23 127 -20 l127 3 97 750 c54 413 100 765
103 783 l5 32 -182 -2 -182 -3 -226 -450 c-124 -247 -249 -508 -278 -580 -29
-71 -56 -133 -60 -138 -4 -4 -13 82 -20 190 -10 161 -72 763 -96 941 l-6 42
-175 0 c-131 0 -176 -3 -179 -12z"/>
<path d="M3380 3478 c0 -7 50 -245 110 -529 61 -284 110 -523 110 -532 0 -8
-23 -49 -50 -91 -72 -107 -176 -191 -293 -237 -28 -11 -53 -22 -55 -24 -2 -2
6 -36 17 -77 11 -40 25 -92 31 -115 l10 -41 38 10 c54 15 148 64 217 113 114
81 238 232 360 439 50 85 491 969 530 1064 l14 33 -141 -3 -142 -3 -103 -240
c-86 -198 -157 -369 -235 -564 -9 -21 -20 35 -64 309 -29 184 -58 371 -66 415
l-13 80 -137 3 c-106 2 -138 0 -138 -10z"/>
<path d="M1537 2088 c-4 -46 -10 -129 -13 -185 l-7 -103 32 0 31 0 1 83 c1 45
4 109 8 142 l6 60 13 -60 c7 -33 24 -97 37 -142 23 -73 28 -83 49 -83 21 0 26
12 62 135 21 74 42 135 46 135 4 0 9 -60 10 -132 l3 -133 31 -3 31 -3 -4 73
c-2 40 -7 123 -11 183 l-7 110 -40 0 -40 0 -32 -105 c-17 -58 -34 -118 -38
-135 -5 -25 -12 -8 -44 105 l-37 135 -41 3 -40 3 -6 -83z"/>
<path d="M1988 2054 c-37 -20 -60 -68 -60 -125 0 -96 64 -150 156 -131 33 6
42 12 44 31 4 23 2 24 -37 17 -55 -8 -100 15 -101 52 0 8 21 12 74 12 41 0 78
5 81 10 13 21 -16 110 -42 130 -30 23 -77 25 -115 4z m92 -60 c6 -14 10 -27
10 -30 0 -2 -22 -4 -50 -4 -29 0 -50 5 -50 11 0 51 73 70 90 23z"/>
<path d="M2200 1935 l0 -135 30 0 30 0 0 84 c0 46 3 92 6 100 10 26 41 38 64
26 18 -10 20 -21 20 -110 l0 -100 35 0 35 0 0 83 c0 45 -5 99 -10 119 -19 66
-82 88 -134 47 l-26 -20 0 20 c0 16 -6 21 -25 21 l-25 0 0 -135z"/>
<path d="M2504 2047 c-19 -17 -27 -33 -27 -55 0 -38 15 -58 65 -83 41 -21 47
-43 16 -63 -13 -8 -26 -7 -47 1 -27 10 -31 9 -36 -8 -9 -26 0 -36 37 -41 71
-11 128 26 128 83 0 26 -17 44 -84 92 -37 26 -24 50 25 45 32 -3 40 0 45 15
13 42 -77 52 -122 14z"/>
<path d="M2743 2055 c-42 -18 -63 -61 -63 -130 0 -49 4 -60 33 -91 28 -31 39
-36 80 -36 87 -2 137 63 122 158 -14 93 -88 136 -172 99z m91 -57 c23 -33 21
-113 -4 -138 -25 -25 -42 -25 -64 -1 -43 48 -23 161 29 161 13 0 31 -10 39
-22z"/>
<path d="M2970 1935 l0 -135 29 0 28 0 5 85 c5 89 22 125 60 125 13 0 18 8 18
30 0 23 -4 30 -20 30 -11 0 -29 -9 -39 -19 -20 -20 -20 -20 -26 0 -4 12 -15
19 -31 19 l-24 0 0 -135z"/>
</g>
</svg>
