
<svg width="125px" height="193px" viewBox="0 1 125 193" version="1.1" xmlns="http://www.w3.org/2000/svg" xmlns:xlink="http://www.w3.org/1999/xlink">
    <!-- Generator: Sketch 42 (36781) - http://www.bohemiancoding.com/sketch -->
    <desc>Created with Sketch.</desc>
    <defs>
        <polygon id="path-1" points="76.5769012 0 91.5542559 14.0471345 113.706986 37.2992652 113.706986 160.59854 0 160.59854 0 0"></polygon>
        <polygon id="path-3" points="2.35158895e-16 155.285253 2.35158895e-16 0.0296060687 64.5321479 0.0296060687 41.9388358 155.285253 0 155.285253"></polygon>
        <polygon id="path-5" points="0.0119972999 192.987937 0.0119972999 0.000402083333 124.130264 0.000402083333 124.130264 192.987937"></polygon>
    </defs>
    <g id="Group" stroke="none" stroke-width="1" fill="none" fill-rule="evenodd" transform="translate(0.000000, 1.000000)">
        <g id="Group-3" transform="translate(6.037539, 3.622523)">
            <g id="Fill-1-Clipped">
                <mask id="mask-2" fill="white">
                    <use xlink:href="#path-1"></use>
                </mask>
                <g id="path-1"></g>
                <polygon id="Fill-1" fill="#C4E1F7" fill-rule="nonzero" mask="url(#mask-2)" points="-2.17829476 -4.09690154 115.885281 -4.09690154 115.885281 164.695441 -2.17829476 164.695441"></polygon>
            </g>
        </g>
        <g id="Group-12" transform="translate(6.037539, 8.855057)">
            <g id="Fill-10-Clipped">
                <mask id="mask-4" fill="white">
                    <use xlink:href="#path-3"></use>
                </mask>
                <g id="path-7"></g>
                <polygon id="Fill-10" fill-opacity="0.44" fill="#FFFFFF" fill-rule="nonzero" mask="url(#mask-4)" points="-1.83570662 -4.43176309 69.8342023 -4.43176309 69.8342023 159.746622 -1.83570662 159.746622"></polygon>
            </g>
        </g>
        <g id="certificate">
            <path d="M75.8327676,110.265725 C81.5681257,110.265725 87.3030866,112.482209 91.6791084,116.909348 C100.393205,125.727236 100.43155,140.015469 91.7703004,148.887035 L91.6791084,148.979314 C82.9272634,157.834998 68.7378744,157.834998 59.9864267,148.979314 C51.2347803,140.124433 51.2347803,125.765635 59.9864267,116.909348 C64.3622499,112.482209 70.0978067,110.265725 75.8327676,110.265725 Z M72.0636987,102.473752 L68.8924438,104.821517 C67.7931734,105.635333 66.4757576,106.076821 65.1132425,106.072398 L61.1820546,106.052495 C58.4017926,106.042845 55.9324575,107.854431 55.0823259,110.532909 L53.8870954,114.316111 C53.4704733,115.62831 52.6517324,116.770227 51.5467005,117.576404 L48.3655118,119.903662 C46.1105473,121.549792 45.1674357,124.479572 46.034852,127.15222 L47.2608772,130.925169 C47.6858437,132.234352 47.6858437,133.644659 47.2608772,134.954446 L46.034852,138.737648 C45.1674357,141.409693 46.1109447,144.340076 48.3655118,145.986205 L51.5467005,148.303411 C52.6517324,149.109387 53.470672,150.26216 53.8870954,151.573957 L55.0823259,155.346906 C55.9324575,158.025384 58.4017926,159.847023 61.1820546,159.837373 L65.1132425,159.817671 C66.4757576,159.811237 67.792776,160.253931 68.8924438,161.068351 L72.0636987,163.406064 C74.3077361,165.066869 77.3579977,165.066869 79.6018364,163.406064 L82.7629589,161.068351 C83.8624279,160.254534 85.1901749,159.813047 86.55269,159.817671 L90.4838779,159.837373 C93.2641399,159.847023 95.732879,158.025384 96.5830105,155.346906 L97.7788371,151.573957 C98.1952605,150.26216 99.0142,149.109991 100.119033,148.303411 L103.300619,145.986205 C105.555385,144.340076 106.498894,141.409693 105.630683,138.737648 L104.404658,134.954446 C103.97989,133.645263 103.97989,132.234955 104.404658,130.925169 L105.630683,127.15222 C106.498497,124.479572 105.554988,121.549792 103.300619,119.903662 L100.119033,117.576404 C99.0142,116.770227 98.1952605,115.62831 97.7788371,114.316111 L96.5830105,110.532909 C95.7324816,107.854431 93.2637425,106.043448 90.4838779,106.052495 L86.55269,106.072398 C85.1901749,106.078831 83.8626266,105.635333 82.7629589,104.821517 L79.6018364,102.473752 C78.4803144,101.643249 77.1555476,101.233124 75.8327676,101.233124 C74.5099875,101.233124 73.1852207,101.642646 72.0636987,102.473752 Z" id="Fill-1" fill="#1485E0"></path>
            <g id="Group-6">
                <mask id="mask-6" fill="white">
                    <use xlink:href="#path-5"></use>
                </mask>
                <g id="Clip-3"></g>
                <path d="M90.1077206,123.197328 C90.3120746,123.197328 90.5108299,123.327402 90.5878126,123.517789 C90.6653951,123.707371 90.6202053,123.944399 90.4682395,124.08553 C83.5198033,130.678491 79.3129501,137.709923 75.9211134,144.142653 L75.9211134,144.14587 C75.5515966,144.857155 75.1600847,145.434547 74.701188,145.855528 C74.2412915,146.277716 73.6894157,146.537864 73.0967491,146.537864 C72.8026153,146.537864 72.4876861,146.458452 72.2133479,146.284149 C71.9388097,146.109846 71.7038626,145.863771 71.4383223,145.528634 C70.9078417,144.859769 70.2525892,143.812141 69.173432,142.103689 C66.9959221,138.65703 65.867576,136.125916 59.402631,131.742805 C59.2288701,131.624995 59.1402901,131.390982 59.1926783,131.187327 C59.2448665,130.983471 59.4290251,130.820024 59.6367783,130.800925 C61.9916484,130.588826 64.041387,130.993121 66.5416243,132.31698 C69.0834523,133.663959 70.5627194,135.569633 72.586264,137.965447 L72.5960618,137.982133 L72.7942172,138.242281 L74.4586426,135.838024 L74.4686403,135.821539 C75.9952967,133.782574 77.6641212,131.87107 79.4259246,130.149148 C81.5980358,128.026952 84.0162916,125.99241 86.738279,124.530234 C87.453318,124.146245 88.177755,123.813119 88.9495813,123.539501 C89.3216975,123.407618 89.6594215,123.333835 89.9229622,123.231907 C89.9799494,123.212004 90.0431352,123.199339 90.1033216,123.199339 L90.1033216,123.196122 L90.1077206,123.197328" id="Fill-2" fill="#1485E0" mask="url(#mask-6)"></path>
                <path d="M95.8332321,161.035782 C93.1102449,162.948493 89.6110324,162.099494 86.5225275,162.453126 C84.1516611,163.077964 82.4356473,165.087978 80.2933294,166.240148 L83.2128724,192.122252 C83.2504639,192.458595 83.4704144,192.769405 83.7753458,192.911542 C84.080877,193.053879 84.4595918,193.021914 84.7397287,192.833538 L93.0582566,187.259255 L107.389031,192.760358 C107.747551,192.898273 108.186652,192.802778 108.453192,192.52514 C108.719932,192.247099 108.797514,191.805008 108.648148,191.449366 L95.8328322,161.035782 L95.8332321,161.035782 Z M56.808015,161.029349 L43.9926991,191.448763 C43.8433328,191.804405 43.9213152,192.246496 44.1878552,192.524536 C44.4545952,192.801974 44.8932965,192.897469 45.2518158,192.759755 L59.5825905,187.258652 L67.9013183,192.832733 C68.1814553,193.02131 68.5595702,193.053879 68.8655013,192.910939 C69.1702328,192.768802 69.3903832,192.457389 69.4279748,192.121448 L72.3475177,166.206172 C71.4431212,165.763478 70.5933125,165.209809 69.8290845,164.598442 C69.742504,164.50938 69.6527242,164.419716 69.5617446,164.335077 L69.5325512,164.305725 C68.1704578,163.047204 66.38326,162.238414 64.5064824,162.289076 C61.9250633,162.617779 59.0469111,162.379545 56.8064153,161.028746 L56.808015,161.029349 L56.808015,161.029349 Z" id="Fill-4" fill="#1485E0" mask="url(#mask-6)"></path>
                <path d="M88.5626684,17.7700729 L105.704011,34.2870531 L88.5626684,34.2870531 L88.5626684,17.7700729 Z M1.5298557,1.54038125 C0.563473186,2.51241771 0,3.87728958 0,5.25181146 L0,159.122268 C0,160.49679 0.563073276,161.861661 1.5298557,162.833698 C2.49643816,163.805935 3.8541326,164.371667 5.22102497,164.371667 L50.5268286,164.371667 C50.9777271,163.302125 51.4208274,162.22816 51.8529301,161.152386 C53.1342418,159.740672 51.7633503,158.238086 51.067307,156.948806 C50.7353817,155.95747 50.5550222,154.872046 50.2110996,153.87307 L10.44185,153.87307 L10.44185,10.5010094 L78.1208184,10.5010094 L78.1208184,39.536251 C78.1208184,40.9107729 78.6834917,42.2756448 79.6500742,43.2476812 C80.6164567,44.2199187 81.9745511,44.78565 83.3416434,44.78565 L113.688414,44.78565 L113.688414,153.87307 L102.409952,153.87307 C101.634726,155.768491 101.401579,158.08429 100.187452,159.696443 C100.859501,161.252907 101.53095,162.811382 102.1962,164.371667 L118.909439,164.371667 C120.276331,164.371667 121.633825,163.805131 122.600408,162.833698 C123.56699,161.861661 124.130264,160.49679 124.130264,159.122268 L124.130264,39.7413135 C123.981497,38.2047521 123.430621,36.6535146 122.518826,35.7427958 L86.951231,1.45835625 C86.0168413,0.564323958 84.7435279,0.0381979167 83.4536182,0.012665625 C57.4058804,-0.0072375 31.2925574,0.003015625 5.22102497,0.003015625 C3.85393265,0.0024125 2.49643816,0.56814375 1.5298557,1.54038125 Z" id="Fill-5" fill="#1485E0" mask="url(#mask-6)"></path>
            </g>
            <path d="M95.3879787,69.5871552 L27.9500367,69.5871552 C25.0849404,69.5871552 22.762625,67.2367771 22.762625,64.3379573 C22.762625,61.4389365 25.0849404,59.0885583 27.9500367,59.0885583 L95.3879787,59.0885583 C98.253075,59.0885583 100.575589,61.4389365 100.575589,64.3379573 C100.575589,67.2367771 98.253075,69.5871552 95.3879787,69.5871552" id="Fill-7" fill="#1485E0"></path>
            <path d="M95.3879787,95.568574 L27.9500367,95.568574 C25.0849404,95.568574 22.762625,93.2181958 22.762625,90.319175 C22.762625,87.4203552 25.0849404,85.0699771 27.9500367,85.0699771 L95.3879787,85.0699771 C98.253075,85.0699771 100.575589,87.4203552 100.575589,90.319175 C100.575589,93.2181958 98.253075,95.568574 95.3879787,95.568574" id="Fill-8" fill="#1485E0"></path>
            <path d="M41.8352538,121.546575 L27.9542089,121.546575 C25.0801722,121.546575 22.7667971,119.205847 22.7667971,116.297377 C22.7667971,113.38951 25.0801722,111.047978 27.9542089,111.047978 L50.1839867,111.047375 C49.7894176,112.440996 49.2802128,113.772696 47.9850486,114.615865 C45.8981634,115.673143 44.0024038,117.173919 42.8683653,119.301342 C42.4380346,120.012627 42.0998893,120.764322 41.8352538,121.546575" id="Fill-9" fill="#1485E0"></path>
        </g>
    </g>
</svg>