
<svg width="193px" height="158px" viewBox="0 0 193 158" version="1.1" xmlns="http://www.w3.org/2000/svg" xmlns:xlink="http://www.w3.org/1999/xlink">
    <!-- Generator: Sketch 42 (36781) - http://www.bohemiancoding.com/sketch -->
    <desc>Created with Sketch.</desc>
    <defs>
        <path d="M110.189366,91.3483046 L110.189366,33.2934639 C110.189366,27.8185768 117.962476,23.0750104 129.219443,20.8196876 C123.584155,9.0409164 111.65417,1.1479125 98.2272146,1.1479125 C83.2302966,1.1479125 70.084178,10.9130473 65.4992433,25.161278 C62.9828491,24.3272719 60.3637701,23.906512 57.6828329,23.906512 C44.3536137,23.906512 33.4121237,34.4455444 32.5609539,47.7220203 C31.0281061,47.4515318 29.4767008,47.3150353 27.9228212,47.3150353 C13.0211649,47.3150353 0.896944854,59.5859452 0.896944854,74.6694343 C0.896944854,88.2727504 10.9117981,100.096603 24.0232761,102.025086 L70.0161339,102.025086 L70.2573811,102.031347 C70.4293471,102.037608 70.6013131,102.04387 70.7757534,102.04387 C70.9489565,102.04387 71.1209225,102.037608 71.2928885,102.031347 L123.000213,102.026338 C115.198648,99.5280763 110.189366,95.6748679 110.189366,91.3483046" id="path-1"></path>
        <polygon id="path-3" points="0 0 133.613854 0 133.613854 101.447556 0 101.447556"></polygon>
        <polygon id="path-5" points="4.66071079e-16 119.274564 4.66071079e-16 0.34176093 127.898916 0.34176093 83.1203025 119.274564 0 119.274564"></polygon>
    </defs>
    <g id="Group" stroke="none" stroke-width="1" fill="none" fill-rule="evenodd">
        <g id="Group-3" transform="translate(17.320314, 9.897323)">
            <mask id="mask-2" fill="white">
                <use xlink:href="#path-1"></use>
            </mask>
            <use id="Mask" stroke="#1485E0" stroke-width="2" xlink:href="#path-1"></use>
            <g mask="url(#mask-2)" id="Fill-1-Clipped">
                <g transform="translate(-4.948661, 1.237165)">
                    <g>
                        <mask id="mask-4" fill="white">
                            <use xlink:href="#path-3"></use>
                        </mask>
                        <g id="path-1"></g>
                        <polygon id="Fill-1" fill="#C4E1F7" fill-rule="nonzero" mask="url(#mask-4)" points="-2.55965238 -2.58794786 136.173506 -2.58794786 136.173506 104.035503 -2.55965238 104.035503"></polygon>
                    </g>
                </g>
            </g>
        </g>
        <path d="M161.341203,96.2217696 C144.216361,96.2217696 130.334129,90.6953521 130.332892,83.8773341 L130.332892,98.9719881 C130.332892,105.788769 144.216361,111.316424 161.341203,111.316424 C178.466045,111.316424 192.349515,105.788769 192.349515,98.9719881 L192.349515,83.8773341 C192.349515,90.6953521 178.466045,96.2217696 161.341203,96.2217696" id="Fill-337" fill="#1485E0"></path>
        <path d="M161.341203,77.2646855 C144.216361,77.2646855 130.334129,71.738268 130.332892,64.92025 L130.332892,80.0136668 C130.332892,86.8316849 144.216361,92.3581023 161.341203,92.3581023 C178.466045,92.3581023 192.349515,86.8316849 192.349515,80.0136668 L192.349515,64.92025 C192.349515,71.7370308 178.466045,77.2646855 161.341203,77.2646855" id="Fill-338" fill="#1485E0"></path>
        <path d="M161.341203,58.5265796 C144.484826,58.5265796 130.770848,53.0880009 130.770848,46.4035967 C130.770848,39.7179553 144.484826,34.2793766 161.341203,34.2793766 C178.197581,34.2793766 191.911558,39.7179553 191.911558,46.4035967 C191.911558,53.0880009 178.197581,58.5265796 161.341203,58.5265796 Z M161.341203,33.8377086 C144.243579,33.8377086 130.332892,39.4742337 130.332892,46.4035967 L130.332892,61.4970135 C130.332892,68.3150316 144.216361,73.841449 161.341203,73.841449 C178.466045,73.841449 192.349515,68.3150316 192.349515,61.4970135 L192.349515,46.4035967 C192.349515,39.4742337 178.438828,33.8377086 161.341203,33.8377086 L161.341203,33.8377086 Z" id="Fill-339" fill="#1485E0"></path>
        <path d="M161.341203,55.7293488 C147.791769,55.7293488 136.806978,51.3559694 136.806978,45.9619287 C136.806978,40.5678879 147.791769,36.1945085 161.341203,36.1945085 C174.890638,36.1945085 185.875429,40.5678879 185.875429,45.9619287 C185.875429,51.3559694 174.890638,55.7293488 161.341203,55.7293488 Z M161.341203,34.6517633 C145.650235,34.6517633 132.930939,39.715481 132.930939,45.9619287 C132.930939,52.2083763 145.650235,57.272094 161.341203,57.272094 C177.032171,57.272094 189.751467,52.2083763 189.751467,45.9619287 C189.751467,39.715481 177.032171,34.6517633 161.341203,34.6517633 L161.341203,34.6517633 Z" id="Fill-340" fill="#1485E0"></path>
        <polyline id="Fill-342" fill="#1485E0" points="50.259841 136.453149 57.1768322 136.453149 57.1768322 156.789672 68.0577012 156.789672 68.0577012 136.453149 74.9746925 136.453149 62.6178853 119.546047 50.259841 136.453149"></polyline>
        <polyline id="Fill-343" fill="#1485E0" points="135.772708 119.546047 124.893076 119.546047 124.893076 139.882571 117.976085 139.882571 130.332892 156.789672 142.689699 139.882571 135.772708 139.882571 135.772708 119.546047"></polyline>
        <g id="Group-12">
            <g id="Fill-10-Clipped" transform="translate(0.000000, 0.000000)">
                <mask id="mask-6" fill="white">
                    <use xlink:href="#path-5"></use>
                </mask>
                <g id="path-7"></g>
                <polygon id="Fill-10" fill-opacity="0.44" fill="#FFFFFF" fill-rule="nonzero" mask="url(#mask-6)" points="112.21476 11.4655262 124.63474 11.4655262 124.63474 111.78586 86.2379132 111.78586 40.7914185 111.78586 30.2392683 107.508941 21.4872902 99.9397607 18.2155678 91.5200291 18.2155678 81.8365526 21.4872902 71.0898871 28.7423465 62.6979434 38.8015638 57.5475179 49.5228577 57.5475179 51.9592254 48.3564883 57.6308816 40.773296 63.8794919 36.3816007 73.2259303 33.4385004 82.4732578 34.8194379 89.1616828 23.4106956 94.6890571 18.4632425 103.13416 13.3551029"></polygon>
            </g>
        </g>
    </g>
</svg>