
<svg width="193px" height="193px" viewBox="0 0 193 193" version="1.1" xmlns="http://www.w3.org/2000/svg" xmlns:xlink="http://www.w3.org/1999/xlink">
    <!-- Generator: Sketch 42 (36781) - http://www.bohemiancoding.com/sketch -->
    <desc>Created with Sketch.</desc>
    <defs></defs>
    <g id="sharing" stroke="none" stroke-width="1" fill="none" fill-rule="evenodd">
        <polyline id="Fill-1" fill="#1485E0" points="101.837829 60.2049714 104.561886 65.5621 109.919014 62.8435571 107.194957 57.4864286 101.837829 60.2049714"></polyline>
        <polyline id="Fill-2" fill="#1485E0" points="112.552086 54.7678857 115.273386 60.1250143 120.630514 57.4037143 117.909214 52.0493429 112.552086 54.7678857"></polyline>
        <polyline id="Fill-3" fill="#1485E0" points="91.1263286 65.6475714 93.8448714 71.0047 99.202 68.2861571 96.4834571 62.9290286 91.1263286 65.6475714"></polyline>
        <polyline id="Fill-4" fill="#1485E0" points="69.6978143 76.5272571 72.4191143 81.8843857 77.7762429 79.1658429 75.0549429 73.8087143 69.6978143 76.5272571"></polyline>
        <polyline id="Fill-5" fill="#1485E0" points="80.4120714 71.0874143 83.1306143 76.4445429 88.4877429 73.7232429 85.7692 68.3661143 80.4120714 71.0874143"></polyline>
        <path d="M153.575614,24.4062286 C161.855314,24.4062286 168.593771,31.1446857 168.593771,39.4243857 C168.593771,47.7068429 161.855314,54.4453 153.575614,54.4453 C145.293157,54.4453 138.5547,47.7068429 138.5547,39.4243857 C138.5547,31.1446857 145.293157,24.4062286 153.575614,24.4062286 Z M153.575614,60.4531143 C165.1694,60.4531143 174.601586,51.0181714 174.601586,39.4243857 C174.601586,27.8306 165.1694,18.3984143 153.575614,18.3984143 C141.981829,18.3984143 132.546886,27.8306 132.546886,39.4243857 C132.546886,51.0181714 141.981829,60.4531143 153.575614,60.4531143 L153.575614,60.4531143 Z" id="Fill-6" fill="#1485E0"></path>
        <path d="M39.4243857,111.518157 C31.1446857,111.518157 24.4062286,104.782457 24.4062286,96.5 C24.4062286,88.2175429 31.1446857,81.4790857 39.4243857,81.4790857 C47.7068429,81.4790857 54.4453,88.2175429 54.4453,96.5 C54.4453,104.782457 47.7068429,111.518157 39.4243857,111.518157 Z M39.4243857,75.4712714 C27.8306,75.4712714 18.3984143,84.9062143 18.3984143,96.5 C18.3984143,108.093786 27.8306,117.528729 39.4243857,117.528729 C51.0209286,117.528729 60.4531143,108.093786 60.4531143,96.5 C60.4531143,84.9062143 51.0209286,75.4712714 39.4243857,75.4712714 L39.4243857,75.4712714 Z" id="Fill-7" fill="#1485E0"></path>
        <polyline id="Fill-8" fill="#1485E0" points="88.4877429 119.276757 83.1306143 116.555457 80.4120714 121.912586 85.7692 124.631129 88.4877429 119.276757"></polyline>
        <polyline id="Fill-9" fill="#1485E0" points="109.919014 130.156443 104.561886 127.4379 101.837829 132.792271 107.194957 135.513571 109.919014 130.156443"></polyline>
        <polyline id="Fill-10" fill="#1485E0" points="75.0549429 119.191286 77.7762429 113.834157 72.4191143 111.115614 69.6978143 116.469986 75.0549429 119.191286"></polyline>
        <polyline id="Fill-11" fill="#1485E0" points="99.202 124.713843 93.8448714 121.9953 91.1263286 127.352429 96.4834571 130.070971 99.202 124.713843"></polyline>
        <polyline id="Fill-12" fill="#1485E0" points="120.630514 135.596286 115.273386 132.874986 112.552086 138.232114 117.909214 140.950657 120.630514 135.596286"></polyline>
        <path d="M71.7325857,89.4086286 L72.0524143,91.5371429 C72.1654571,92.2898429 72.2674714,93.0480571 72.3336429,93.8531429 C72.4136,94.7244 72.4687429,95.6039286 72.4687429,96.5 C72.4687429,97.3933143 72.4136,98.2756 72.3308857,99.1827 C72.2674714,99.9547 72.1654571,100.712914 72.0524143,101.468371 L71.7353429,103.596886 L127.970029,132.621329 L129.5223,130.9698 C135.849943,124.239614 144.391571,120.531257 153.575614,120.531257 C171.794814,120.531257 186.617214,135.353657 186.617214,153.575614 C186.617214,171.794814 171.794814,186.617214 153.575614,186.617214 C135.353657,186.617214 120.531257,171.794814 120.531257,153.575614 C120.531257,152.944229 120.578129,152.321114 120.619486,151.703514 L120.7794,149.299286 L63.1992286,119.478029 L61.6524714,120.8952 C60.9245857,121.559671 60.1691286,122.1883 59.3392286,122.819686 C58.5727429,123.401443 57.7842,123.952871 56.7861143,124.573229 C56.0141143,125.052971 55.2228143,125.5079 54.4122143,125.921471 L55.777,128.5959 L53.9903714,126.122743 C53.2431857,126.489443 52.4849714,126.847871 51.6991857,127.159429 L50.9575143,127.429629 C50.2599571,127.691557 49.5596429,127.947971 48.8345143,128.163029 C48.6167,128.2292 48.3906143,128.281586 48.1672857,128.336729 L47.3070571,128.554543 C46.8218,128.684129 46.3337857,128.813714 45.8292286,128.912971 C45.4294429,128.992929 45.0213857,129.045314 44.6105714,129.100457 L43.5187429,129.260371 C43.2402714,129.304486 42.9645571,129.351357 42.6971143,129.378929 C38.3518571,129.806286 33.8053286,129.370657 29.5979286,128.058257 C25.4980571,126.7817 21.7345571,124.744171 18.4094429,121.998057 C16.7799714,120.655329 15.2718143,119.147171 13.9263286,117.514943 C11.1802143,114.192586 9.14268571,110.429086 7.86888571,106.326457 C6.88182857,103.1585 6.38278571,99.8526857 6.38278571,96.5 C6.38278571,93.1473143 6.88182857,89.8415 7.86888571,86.6735429 C9.14268571,82.5709143 11.1802143,78.8074143 13.9263286,75.4850571 C15.2718143,73.8528286 16.7799714,72.3446714 18.4094429,71.0019429 C21.7345571,68.2558286 25.4980571,66.2183 29.5979286,64.9417429 C33.8053286,63.6293429 38.3877,63.1964714 42.6860857,63.6210714 C42.9645571,63.6486429 43.2402714,63.6955143 43.5187429,63.7368714 L44.6105714,63.8995429 C45.0213857,63.9546857 45.4294429,64.0070714 45.8375,64.0897857 C46.3337857,64.1862857 46.8218,64.3158714 47.3070571,64.4454571 L48.1672857,64.6632714 C48.3906143,64.7184143 48.6167,64.7708 48.8400286,64.8369714 C49.5596429,65.0520286 50.2599571,65.3084429 50.9630286,65.5731286 L51.7047,65.8405714 C52.4849714,66.1521286 53.2431857,66.5105571 53.9903714,66.8772571 L55.3165571,64.1807714 L54.4122143,67.0785286 C55.2228143,67.4921 56.0141143,67.9470286 56.7006429,68.3716286 L56.9680857,68.5343 C57.7842,69.0471286 58.5727429,69.5985571 59.3805857,70.2134 C60.1691286,70.8117 60.9245857,71.4403286 61.6552286,72.1075571 L63.2019857,73.5219714 L120.7794,43.6979571 L120.619486,41.2964857 C120.578129,40.6788857 120.531257,40.0557714 120.531257,39.4243857 C120.531257,21.2051857 135.353657,6.38278571 153.575614,6.38278571 C171.794814,6.38278571 186.617214,21.2051857 186.617214,39.4243857 C186.617214,57.6463429 171.794814,72.4687429 153.575614,72.4687429 C144.391571,72.4687429 135.849943,68.7603857 129.5223,62.0302 L127.970029,60.3786714 L71.7325857,89.4086286 Z M192.625029,39.4243857 C192.625029,17.8938571 175.106143,0.374971429 153.575614,0.374971429 C132.042329,0.374971429 114.523443,17.8938571 114.523443,39.4243857 C114.523443,39.6752857 114.528957,39.9206714 114.537229,40.1660571 L64.1035714,66.2872286 C63.7396286,65.9894571 63.3619,65.6916857 62.9703857,65.3939143 C62.0660429,64.7073857 61.1341286,64.0622143 59.9485571,63.3150286 C59.0331857,62.7498143 58.1012714,62.2176857 57.1610857,61.7379429 L56.6399857,61.4842857 C55.7521857,61.0486571 54.8533571,60.6323286 53.9324714,60.2628714 L53.0722429,59.9485571 C52.2423429,59.6342429 51.4096857,59.3309571 50.5577286,59.0800571 C50.2379,58.9835571 49.9125571,58.9036 49.5872143,58.8236429 L48.8262429,58.6306429 C48.2224286,58.4734857 47.6158571,58.3163286 47.0010143,58.1977714 C46.4826714,58.0902429 45.9533,58.0185571 45.4239286,57.9468714 L44.4644429,57.8062571 C44.0756857,57.7456 43.6896857,57.6821857 43.2816286,57.6435857 C38.1423143,57.1473 32.7851857,57.6573714 27.8140571,59.2041286 C22.9642429,60.7150429 18.5142143,63.1220286 14.5852857,66.3671857 C12.6608,67.9525429 10.8796857,69.7336571 9.29432857,71.6581429 C6.04917143,75.5870714 3.63942857,80.0371 2.12851429,84.8896714 C0.965,88.6338714 0.374971429,92.5435 0.374971429,96.5 C0.374971429,100.4565 0.965,104.363371 2.12851429,108.110329 C3.63942857,112.9629 6.04917143,117.412929 9.29432857,121.341857 C10.8796857,123.266343 12.6608,125.0447 14.5852857,126.632814 C18.5142143,129.877971 22.9642429,132.284957 27.8140571,133.795871 C32.7851857,135.345386 38.1092286,135.858214 43.2926571,135.356414 C43.6896857,135.315057 44.0756857,135.2544 44.4644429,135.193743 L45.4239286,135.053129 C45.9533,134.981443 46.4826714,134.909757 46.9955,134.804986 C47.6158571,134.683671 48.2224286,134.526514 48.8262429,134.369357 L49.5872143,134.176357 C49.9125571,134.0964 50.2379,134.016443 50.5522143,133.9227 C51.4096857,133.669043 52.2423429,133.365757 53.3369286,132.9577 L53.9297143,132.737129 C54.8533571,132.367671 55.7521857,131.951343 56.7971429,131.438514 C58.1012714,130.782314 59.0331857,130.250186 60.1718857,129.547114 C61.1341286,128.937786 62.0660429,128.292614 63.0200143,127.570243 C63.3867143,127.286257 63.7479,127.002271 64.1035714,126.712771 L114.537229,152.833943 C114.528957,153.079329 114.523443,153.324714 114.523443,153.575614 C114.523443,175.106143 132.042329,192.625029 153.575614,192.625029 C175.106143,192.625029 192.625029,175.106143 192.625029,153.575614 C192.625029,132.042329 175.106143,114.523443 153.575614,114.523443 C143.481714,114.523443 134.041257,118.311757 126.756886,125.234943 L78.2697714,100.2056 C78.4131429,98.6505714 78.4765571,97.5835571 78.4765571,96.5 C78.4765571,95.4164429 78.4131429,94.3494286 78.3166429,93.3348 C78.3028571,93.1528286 126.756886,67.7650571 126.756886,67.7650571 C134.041257,74.6882429 143.481714,78.4765571 153.575614,78.4765571 C175.106143,78.4765571 192.625029,60.9576714 192.625029,39.4243857 Z" id="Fill-13" fill="#1485E0"></path>
        <path d="M153.575614,138.5547 C161.855314,138.5547 168.593771,145.293157 168.593771,153.575614 C168.593771,161.855314 161.855314,168.593771 153.575614,168.593771 C145.293157,168.593771 138.5547,161.855314 138.5547,153.575614 C138.5547,145.293157 145.293157,138.5547 153.575614,138.5547 Z M153.575614,174.601586 C165.1694,174.601586 174.601586,165.1694 174.601586,153.575614 C174.601586,141.981829 165.1694,132.546886 153.575614,132.546886 C141.981829,132.546886 132.546886,141.981829 132.546886,153.575614 C132.546886,165.1694 141.981829,174.601586 153.575614,174.601586 L153.575614,174.601586 Z" id="Fill-14" fill="#1485E0"></path>
    </g>
</svg>