
<svg width="97px" height="49px" viewBox="0 0 97 49" version="1.1" xmlns="http://www.w3.org/2000/svg" xmlns:xlink="http://www.w3.org/1999/xlink">
    <!-- Generator: Sketch 42 (36781) - http://www.bohemiancoding.com/sketch -->
    <desc>Created with Sketch.</desc>
    <defs></defs>
    <g id="uponrequest" stroke="none" stroke-width="1" fill="none" fill-rule="evenodd">
        <path d="M21.3906999,8.44531327 L21.3906999,17.2899196 C21.3906999,18.3288297 21.585515,19.192562 21.9751452,19.8808048 C22.5530448,20.9200266 23.5271204,21.4393257 24.897372,21.4393257 C26.5403648,21.4393257 27.6572009,20.8776348 28.248192,19.7542529 C28.566442,19.1439361 28.7254111,18.3222839 28.7254111,17.2899196 L28.7254111,8.44531327 L30.6931997,8.44531327 L30.6931997,16.4813589 C30.6931997,18.2412408 30.4559928,19.5952838 29.9822024,20.5431762 C29.1119243,22.2706408 27.4689316,23.1343731 25.0532241,23.1343731 C22.6375166,23.1343731 20.9979526,22.2706408 20.1342203,20.5431762 C19.6601182,19.5952838 19.4232231,18.2412408 19.4232231,16.4813589 L19.4232231,8.44531327 L21.3906999,8.44531327" id="Fill-1" fill="#000000"></path>
        <path d="M33.8785048,8.44531327 L40.3170665,8.44531327 C41.5897547,8.44531327 42.6158849,8.80408479 43.3951453,9.52162783 C44.1744058,10.2391709 44.564036,11.2472222 44.564036,12.5460936 C44.564036,13.6629297 44.2164859,14.6354467 43.5216972,15.4633331 C42.8269086,16.2915311 41.7586984,16.7054742 40.3170665,16.7054742 L35.8166814,16.7054742 L35.8166814,22.7544057 L33.8785048,22.7544057 L33.8785048,8.44531327 Z M41.4373313,10.4127901 C41.0087381,10.2114292 40.420864,10.1107487 39.6740207,10.1107487 L35.8166814,10.1107487 L35.8166814,15.0690273 L39.6740207,15.0690273 C40.5442988,15.0690273 41.2506205,14.883875 41.7926741,14.5135704 C42.3350394,14.1435775 42.606222,13.490869 42.606222,12.5557564 C42.606222,11.5037548 42.2165918,10.7896405 41.4373313,10.4127901 L41.4373313,10.4127901 Z" id="Fill-2" fill="#000000"></path>
        <path d="M58.7855396,10.4907161 C59.7334321,11.7571703 60.2075341,13.3774086 60.2075341,15.3514313 C60.2075341,17.4878518 59.6654805,19.2639422 58.5810617,20.6797026 C57.3080618,22.3420211 55.4930083,23.1733361 53.1359012,23.1733361 C50.9343345,23.1733361 49.2037529,22.4458186 47.9441563,20.9914068 C46.8204627,19.588738 46.2587717,17.8157646 46.2587717,15.6727983 C46.2587717,13.7377387 46.7394196,12.0816543 47.7004036,10.7051686 C48.9344405,8.938741 50.7591568,8.05568303 53.1748642,8.05568303 C55.700915,8.05568303 57.5711401,8.86736074 58.7855396,10.4907161 Z M57.0758421,19.6033881 C57.838894,18.3793257 58.2204199,16.9716696 58.2204199,15.3807314 C58.2204199,13.6987757 57.7806053,12.3447327 56.9006644,11.3186025 C56.0207235,10.292784 54.817857,9.7797189 53.2917533,9.7797189 C51.8111584,9.7797189 50.6033047,10.2877967 49.6681921,11.3042641 C48.7330796,12.3204197 48.2655233,13.8187818 48.2655233,15.7993502 C48.2655233,17.3840543 48.6663749,18.7200184 49.4683897,19.807866 C50.2704046,20.8954019 51.5708345,21.4393257 53.3696794,21.4393257 C55.0775066,21.4393257 56.3127903,20.8274504 57.0758421,19.6033881 L57.0758421,19.6033881 Z" id="Fill-3" fill="#000000"></path>
        <polyline id="Fill-4" fill="#000000" points="62.516327 8.44531327 64.8051709 8.44531327 72.0329676 20.0366569 72.0329676 8.44531327 73.8738925 8.44531327 73.8738925 22.7544057 71.7016261 22.7544057 64.3669148 11.1727249 64.3669148 22.7544057 62.516327 22.7544057 62.516327 8.44531327"></polyline>
        <path d="M6.482512,39.0019865 C7.39175311,39.0019865 8.11085467,38.820263 8.64012838,38.4565042 C9.1694021,38.0927454 9.43403895,37.4369198 9.43403895,36.4887156 C9.43403895,35.469443 9.06373438,34.7743426 8.32343693,34.4043497 C7.92726091,34.2095346 7.3979872,34.1119712 6.7356158,34.1119712 L2.00176429,34.1119712 L2.00176429,39.0019865 L6.482512,39.0019865 Z M0.0632759501,32.4465357 L6.68698994,32.4465357 C7.7779546,32.4465357 8.67753289,32.6055049 9.38510139,32.9237548 C10.7294816,33.5340716 11.4015158,34.6608823 11.4015158,36.3038751 C11.4015158,37.1610616 11.2244678,37.862396 10.8706836,38.4078783 C10.5168993,38.9533607 10.0216013,39.3916167 9.38510139,39.7226466 C9.9436753,39.9501907 10.3641642,40.2488033 10.6465682,40.6187961 C10.9292839,40.9891007 11.0866946,41.5897547 11.1191118,42.4210698 L11.187375,44.3399207 C11.2067007,44.8854031 11.2522095,45.2912419 11.3235897,45.5574373 C11.4404788,46.0122137 11.6483855,46.3042805 11.9469981,46.4342612 L11.9469981,46.7556282 L9.57025368,46.7556282 C9.50541921,46.6321933 9.45336461,46.4732242 9.41440159,46.2784091 C9.37543856,46.083594 9.34302133,45.7067436 9.31714988,45.1484814 L9.20026081,42.7617624 C9.154752,41.8266499 8.80720183,41.2001244 8.15792201,40.8818745 C7.78761743,40.7066967 7.20660082,40.6187961 6.41424878,40.6187961 L2.00176429,40.6187961 L2.00176429,46.7556282 L0.0632759501,46.7556282 L0.0632759501,32.4465357 L0.0632759501,32.4465357 Z" id="Fill-5" fill="#000000"></path>
        <polyline id="Fill-6" fill="#000000" points="14.421306 32.4465357 24.8534217 32.4465357 24.8534217 34.1998718 16.3108567 34.1998718 16.3108567 38.5440931 24.2106877 38.5440931 24.2106877 40.2001774 16.3108567 40.2001774 16.3108567 45.050918 24.999611 45.050918 24.999611 46.7556282 14.421306 46.7556282 14.421306 32.4465357"></polyline>
        <path d="M40.6334462,46.7166652 L39.6593706,47.8952187 L37.4484528,46.2101459 C36.9157504,46.5022127 36.3394093,46.7359908 35.7194297,46.9114803 C35.0991384,47.086658 34.4221169,47.1745586 33.6883652,47.1745586 C31.4674729,47.1745586 29.7272284,46.447041 28.4673201,44.9926293 C27.3570298,43.5768689 26.8015729,41.8042072 26.8015729,39.6740207 C26.8015729,37.7389611 27.2822208,36.0828768 28.2432048,34.7063911 C29.4772416,32.9399635 31.301958,32.0569055 33.7176654,32.0569055 C36.2437162,32.0569055 38.1139413,32.8685832 39.3283408,34.4919386 C40.2765449,35.7583927 40.7503353,37.3786311 40.7503353,39.3526537 C40.7503353,40.2746747 40.636875,41.1611614 40.4096426,42.0118022 C40.0652095,43.3106735 39.4841929,44.3692209 38.6659694,45.1874444 L40.6334462,46.7166652 Z M35.052071,45.3579466 C35.4027383,45.302775 35.7078967,45.1939902 35.9678579,45.0315923 L34.3993625,43.8041012 L35.3734381,42.6059103 L37.2436632,44.0575167 C37.8346543,43.3820538 38.2358176,42.6255477 38.4468414,41.7876868 C38.6578651,40.9501377 38.7632211,40.1481228 38.7632211,39.3819539 C38.7632211,37.6999981 38.3234065,36.3459551 37.4434656,35.3198249 C36.5635247,34.2940065 35.3606582,33.7809414 33.8345545,33.7809414 C32.2891251,33.7809414 31.0647511,34.2728106 30.1623674,35.256549 C29.2596721,36.2405991 28.8083245,37.7551698 28.8083245,39.8005726 C28.8083245,41.5214915 29.241905,42.8917431 30.1087543,43.9113275 C30.9756037,44.9309119 32.2467334,45.4405482 33.9221434,45.4405482 C34.3248652,45.4405482 34.7014038,45.4131182 35.052071,45.3579466 L35.052071,45.3579466 Z" id="Fill-7" fill="#000000"></path>
        <path d="M45.1631315,32.4465357 L45.1631315,41.2911421 C45.1631315,42.3300521 45.3579466,43.1937844 45.7475768,43.8820273 C46.3254764,44.921249 47.299552,45.4405482 48.6698036,45.4405482 C50.3124847,45.4405482 51.4296325,44.8788573 52.0206236,43.7554754 C52.3385619,43.1451586 52.4978427,42.3235063 52.4978427,41.2911421 L52.4978427,32.4465357 L54.4653196,32.4465357 L54.4653196,40.4825814 C54.4653196,42.2424633 54.2284244,43.5965062 53.7543223,44.5443987 C52.8840442,46.2718633 51.2413632,47.1355956 48.8256557,47.1355956 C46.4099482,47.1355956 44.7700725,46.2718633 43.9063402,44.5443987 C43.4325498,43.5965062 43.195343,42.2424633 43.195343,40.4825814 L43.195343,32.4465357 L45.1631315,32.4465357" id="Fill-8" fill="#000000"></path>
        <polyline id="Fill-9" fill="#000000" points="57.6506247 32.4465357 68.0830521 32.4465357 68.0830521 34.1998718 59.5404872 34.1998718 59.5404872 38.5440931 67.4400064 38.5440931 67.4400064 40.2001774 59.5404872 40.2001774 59.5404872 45.050918 68.2292414 45.050918 68.2292414 46.7556282 57.6506247 46.7556282 57.6506247 32.4465357"></polyline>
        <path d="M72.0376432,42.1383541 C72.083152,42.9503435 72.2748501,43.6092861 72.6124257,44.1158054 C73.2554714,45.0640096 74.3885161,45.5381116 76.0118716,45.5381116 C76.7393891,45.5381116 77.4017605,45.4340024 77.9989858,45.2264074 C79.1550966,44.8236856 79.7329962,44.1030255 79.7329962,43.0638038 C79.7329962,42.2845433 79.4895552,41.7293982 79.0023615,41.3980566 C78.5089338,41.0735725 77.7362191,40.7911686 76.6842175,40.5508446 L74.7457291,40.1122768 C73.479275,39.8267558 72.5831255,39.5116229 72.0572805,39.1675014 C71.1480394,38.5702762 70.6935747,37.6772437 70.6935747,36.4887156 C70.6935747,35.2029359 71.1383766,34.1478172 72.0279803,33.3230479 C72.9175841,32.4982786 74.1774924,32.085894 75.8073936,32.085894 C77.3076259,32.085894 78.5818726,32.4480943 79.6307572,33.1721831 C80.6793301,33.8962719 81.2039282,35.0536296 81.2039282,36.6445677 L79.3823289,36.6445677 C79.2847655,35.8783988 79.0771705,35.2908365 78.7589206,34.8815689 C78.1679294,34.1347256 77.1645536,33.761304 75.7491049,33.761304 C74.6060857,33.761304 73.7847451,34.0016279 73.2844599,34.4822758 C72.7844864,34.9629236 72.5344996,35.5211858 72.5344996,36.1576858 C72.5344996,36.8590202 72.8268782,37.3720853 73.4113235,37.6965694 C73.794408,37.9044761 74.6612573,38.1641257 76.0118716,38.4758298 L78.0186231,38.9337233 C78.9861529,39.1547216 79.7329962,39.4564512 80.2588411,39.8395357 C81.1680822,40.5084529 81.6225469,41.4794114 81.6225469,42.7520996 C81.6225469,44.3368037 81.0462059,45.4698484 79.8938355,46.1515455 C78.7411534,46.8335542 77.4017605,47.1745586 75.8756568,47.1745586 C74.0964493,47.1745586 72.7034433,46.7197822 71.6969505,45.8108528 C70.690146,44.9081575 70.1967182,43.6840951 70.2163556,42.1383541 L72.0376432,42.1383541" id="Fill-10" fill="#000000"></path>
        <polyline id="Fill-11" fill="#000000" points="94.4903192 32.4465357 94.4903192 34.1509342 89.6685671 34.1509342 89.6685671 46.7556282 87.7007786 46.7556282 87.7007786 34.1509342 82.8793382 34.1509342 82.8793382 32.4465357 94.4903192 32.4465357"></polyline>
    </g>
</svg>